<svg width="31" height="31" viewBox="0 0 31 31" fill="none" xmlns="http://www.w3.org/2000/svg">
<path d="M15.1133 8.34688C13.7207 8.34688 12.3595 8.75982 11.2016 9.53347C10.0438 10.3071 9.14132 11.4068 8.60842 12.6933C8.07551 13.9798 7.93608 15.3955 8.20775 16.7613C8.47942 18.1271 9.15 19.3816 10.1347 20.3663C11.1193 21.351 12.3739 22.0216 13.7397 22.2932C15.1055 22.5649 16.5211 22.4255 17.8077 21.8926C19.0942 21.3597 20.1939 20.4572 20.9675 19.2994C21.7412 18.1415 22.1541 16.7802 22.1541 15.3877C22.1541 13.5204 21.4123 11.7295 20.0919 10.4091C18.7715 9.08868 16.9806 8.34688 15.1133 8.34688ZM15.1133 20.5918C14.084 20.5918 13.0779 20.2866 12.222 19.7147C11.3662 19.1429 10.6992 18.3301 10.3053 17.3792C9.91145 16.4283 9.80839 15.3819 10.0092 14.3724C10.21 13.3629 10.7056 12.4357 11.4334 11.7079C12.1612 10.9801 13.0885 10.4844 14.098 10.2836C15.1075 10.0828 16.1539 10.1859 17.1048 10.5798C18.0557 10.9736 18.8685 11.6407 19.4403 12.4965C20.0121 13.3523 20.3174 14.3584 20.3174 15.3877C20.3133 16.7667 19.7637 18.088 18.7887 19.0631C17.8136 20.0382 16.4922 20.5877 15.1133 20.5918ZM21.848 0.387695H8.37859C6.18649 0.387695 4.08418 1.2585 2.53413 2.80855C0.984088 4.35859 0.113281 6.46091 0.113281 8.653V22.1224C0.113281 24.3145 0.984088 26.4168 2.53413 27.9668C4.08418 29.5169 6.18649 30.3877 8.37859 30.3877H21.848C24.0401 30.3877 26.1424 29.5169 27.6924 27.9668C29.2425 26.4168 30.1133 24.3145 30.1133 22.1224V8.653C30.1133 6.46091 29.2425 4.35859 27.6924 2.80855C26.1424 1.2585 24.0401 0.387695 21.848 0.387695ZM28.2765 22.1224C28.2765 23.8274 27.5993 25.4625 26.3937 26.6681C25.1881 27.8737 23.5529 28.551 21.848 28.551H8.37859C6.67362 28.551 5.03849 27.8737 3.8329 26.6681C2.62731 25.4625 1.95002 23.8274 1.95002 22.1224V8.653C1.95002 6.94804 2.62731 5.31291 3.8329 4.10731C5.03849 2.90172 6.67362 2.22443 8.37859 2.22443H21.848C23.5529 2.22443 25.1881 2.90172 26.3937 4.10731C27.5993 5.31291 28.2765 6.94804 28.2765 8.653V22.1224ZM24.6031 7.42851C24.6031 7.73124 24.5133 8.02717 24.3451 8.27887C24.1769 8.53058 23.9379 8.72676 23.6582 8.84261C23.3785 8.95846 23.0708 8.98877 22.7739 8.92971C22.4769 8.87066 22.2042 8.72488 21.9902 8.51082C21.7761 8.29676 21.6303 8.02403 21.5713 7.72712C21.5122 7.43021 21.5425 7.12245 21.6584 6.84277C21.7742 6.56309 21.9704 6.32404 22.2221 6.15585C22.4738 5.98767 22.7697 5.8979 23.0725 5.8979C23.4784 5.8979 23.8677 6.05916 24.1548 6.34621C24.4418 6.63325 24.6031 7.02257 24.6031 7.42851Z" fill="#E3BC7A"/>
</svg>
