<svg width="17" height="31" viewBox="0 0 17 31" fill="none" xmlns="http://www.w3.org/2000/svg">
<path d="M15.5451 0.610726C14.2276 0.457861 12.9034 0.38347 11.5784 0.38788C7.18593 0.38788 4.45614 3.44772 4.45614 8.37317V11.7173H0.766343C0.59314 11.7173 0.427031 11.7925 0.304558 11.9265C0.182085 12.0604 0.113281 12.2421 0.113281 12.4315V17.9312C0.113281 18.1207 0.182085 18.3023 0.304558 18.4363C0.427031 18.5702 0.59314 18.6455 0.766343 18.6455H4.45614V29.6734C4.45614 29.8629 4.52494 30.0445 4.64742 30.1785C4.76989 30.3124 4.936 30.3877 5.1092 30.3877H10.305C10.4782 30.3877 10.6443 30.3124 10.7667 30.1785C10.8892 30.0445 10.958 29.8629 10.958 29.6734V18.6455H14.6361C14.7946 18.6456 14.9478 18.5825 15.067 18.4682C15.1862 18.3539 15.2633 18.196 15.2839 18.0241L15.933 12.5244C15.9451 12.4236 15.9374 12.3211 15.9104 12.2238C15.8833 12.1266 15.8376 12.0367 15.7763 11.9603C15.715 11.8839 15.6394 11.8227 15.5547 11.7808C15.4701 11.7389 15.3782 11.7172 15.2852 11.7173H10.958V8.91885C10.958 7.53321 11.2127 6.95467 12.797 6.95467H15.4602C15.6334 6.95467 15.7995 6.87942 15.922 6.74547C16.0445 6.61152 16.1133 6.42985 16.1133 6.24042V1.31926C16.1134 1.14585 16.0558 0.978336 15.9512 0.847964C15.8467 0.717592 15.7023 0.633268 15.5451 0.610726ZM14.8072 5.52475L12.7957 5.52618C9.97843 5.52618 9.65189 7.46321 9.65189 8.91885V12.4329C9.65189 12.6221 9.72052 12.8036 9.84271 12.9375C9.9649 13.0714 10.1307 13.1468 10.3036 13.1472H14.5433L14.0614 17.2184H10.305C10.1318 17.2184 9.96564 17.2937 9.84317 17.4276C9.7207 17.5615 9.65189 17.7432 9.65189 17.9326V28.9578H5.76226V17.9326C5.76226 17.7432 5.69346 17.5615 5.57098 17.4276C5.44851 17.2937 5.2824 17.2184 5.1092 17.2184H1.42071V13.1472H5.1092C5.2824 13.1472 5.44851 13.0719 5.57098 12.938C5.69346 12.804 5.76226 12.6224 5.76226 12.4329V8.37317C5.76226 4.26767 7.93695 1.81638 11.5784 1.81638C12.8963 1.81638 14.0862 1.89494 14.8072 1.96351V5.52475Z" fill="#E3BC7A"/>
</svg>
