<svg width="34" height="31" viewBox="0 0 34 31" fill="none" xmlns="http://www.w3.org/2000/svg">
<path d="M32.361 0.925169C32.0611 0.663762 31.6962 0.489344 31.3054 0.420587C30.9146 0.35183 30.5125 0.391321 30.1423 0.534834L1.50075 11.8545C1.06128 12.0259 0.689114 12.3364 0.440396 12.7392C0.191678 13.1421 0.0799045 13.6154 0.121941 14.0878C0.163978 14.5601 0.357544 15.0059 0.673433 15.3579C0.989322 15.7099 1.4104 15.9489 1.87312 16.0389L9.39811 17.5534V26.9527C9.39862 27.3833 9.52554 27.8043 9.76293 28.1626C10.0003 28.5209 10.3376 28.8007 10.7324 28.9668C10.9987 29.076 11.2828 29.1342 11.5703 29.1386C11.8558 29.1403 12.1388 29.0846 12.4026 28.9746C12.6663 28.8647 12.9056 28.7028 13.1063 28.4984L17.342 24.236L23.6723 29.8412C24.0644 30.195 24.5731 30.3897 25.0998 30.3876C25.3267 30.3895 25.5523 30.3526 25.7669 30.2783C26.1252 30.1637 26.4472 29.9562 26.7005 29.6766C26.9538 29.3971 27.1295 29.0553 27.2099 28.6858L33.0592 3.0642C33.1466 2.67746 33.1278 2.27408 33.0048 1.89727C32.8818 1.52046 32.6593 1.18442 32.361 0.925169ZM1.99724 13.9155C1.98639 13.8497 1.99916 13.7821 2.03328 13.7249C2.06739 13.6677 2.12061 13.6246 2.18343 13.6032L26.1548 4.12591L10.1118 15.7891L2.24549 14.1965C2.17692 14.1888 2.11362 14.1558 2.06778 14.104C2.02194 14.0521 1.99681 13.9849 1.99724 13.9155ZM11.7875 27.1713C11.7445 27.2167 11.6883 27.2472 11.6269 27.2584C11.5656 27.2696 11.5023 27.261 11.4462 27.2337C11.3916 27.2098 11.3451 27.1705 11.312 27.1207C11.279 27.0709 11.261 27.0126 11.26 26.9527V18.8493L15.9301 23.0025L11.7875 27.1713ZM25.4101 28.2642C25.3995 28.3184 25.3748 28.3687 25.3385 28.4102C25.3023 28.4516 25.2558 28.4826 25.2037 28.5001C25.1517 28.5175 25.096 28.5208 25.0423 28.5095C24.9886 28.4983 24.9388 28.4729 24.8981 28.436L11.8185 16.8508L31.2128 2.76755L25.4101 28.2642Z" fill="#E3BC7A"/>
</svg>
