<svg width="25" height="38" viewBox="0 0 25 38" fill="none" xmlns="http://www.w3.org/2000/svg">
<path d="M20.9281 20.3661C23.1789 18.1153 24.4219 15.1171 24.4219 11.9341C24.4219 8.74687 23.1831 5.75283 20.9281 3.50205C18.6773 1.25127 15.6791 0.00830078 12.4961 0.00830078C9.31309 0.00830078 6.31484 1.24707 4.06406 3.50205C1.81328 5.75703 0.570312 8.74687 0.570312 11.9341C0.570312 14.6132 1.44795 17.1579 3.06465 19.2365C3.37119 19.6313 3.70293 20.005 4.05986 20.3661C4.4168 20.723 4.79473 21.0548 5.18525 21.3613C6.84814 22.6547 8.80918 23.4777 10.9004 23.7549V28.2271H6.11328C5.92852 28.2271 5.77734 28.3782 5.77734 28.563V31.0825C5.77734 31.2673 5.92852 31.4185 6.11328 31.4185H10.9004V37.2974C10.9004 37.4821 11.0516 37.6333 11.2363 37.6333H13.7559C13.9406 37.6333 14.0918 37.4821 14.0918 37.2974V31.4185H18.8789C19.0637 31.4185 19.2148 31.2673 19.2148 31.0825V28.563C19.2148 28.3782 19.0637 28.2271 18.8789 28.2271H14.0918V23.7549C16.6743 23.4105 19.0553 22.239 20.9281 20.3661ZM12.4961 20.6685C10.1613 20.6685 7.97354 19.7614 6.31904 18.1111C4.66875 16.4608 3.76172 14.2688 3.76172 11.9341C3.76172 9.59932 4.66875 7.41152 6.31904 5.75703C7.96934 4.10254 10.1613 3.19971 12.4961 3.19971C14.8309 3.19971 17.0187 4.10674 18.6731 5.75703C20.3234 7.40732 21.2305 9.59932 21.2305 11.9341C21.2305 14.2688 20.3234 16.4566 18.6731 18.1111C17.0187 19.7614 14.8309 20.6685 12.4961 20.6685Z" fill="#AE1E6D"/>
</svg>
