<svg width="44" height="44" viewBox="0 0 44 44" fill="none" xmlns="http://www.w3.org/2000/svg">
<path d="M42.3507 0.320801H28.5293C28.3483 0.320801 28.2002 0.468888 28.2002 0.649882V3.72131C28.2002 3.90231 28.3483 4.05039 28.5293 4.05039H37.3267L26.3957 14.9814C23.6534 12.8698 20.3077 11.729 16.792 11.729C12.5743 11.729 8.60336 13.3744 5.62517 16.358C2.64699 19.3417 0.996094 23.3072 0.996094 27.5249C0.996094 31.7426 2.6415 35.7135 5.62517 38.6917C8.60336 41.6754 12.5743 43.3208 16.792 43.3208C21.0097 43.3208 24.9807 41.6754 27.9588 38.6917C30.9425 35.7135 32.5879 31.7426 32.5879 27.5249C32.5879 24.0092 31.4471 20.6745 29.341 17.9322L40.2665 7.00664V15.7876C40.2665 15.9686 40.4146 16.1167 40.5956 16.1167H43.667C43.848 16.1167 43.9961 15.9686 43.9961 15.7876V1.96621C43.9961 1.06123 43.2557 0.320801 42.3507 0.320801ZM16.792 39.1524C10.3804 39.1524 5.16446 33.9365 5.16446 27.5249C5.16446 21.1133 10.3804 15.8973 16.792 15.8973C23.2036 15.8973 28.4196 21.1133 28.4196 27.5249C28.4196 33.9365 23.2036 39.1524 16.792 39.1524Z" fill="#497FBF"/>
</svg>
