<svg width="35" height="34" viewBox="0 0 35 34" fill="none" xmlns="http://www.w3.org/2000/svg">
<path d="M1.33008 17.0846C1.33008 25.6949 8.53153 32.6745 17.4155 32.6745C26.2995 32.6745 33.501 25.6949 33.501 17.0846C33.501 8.47425 26.2995 1.49463 17.4155 1.49463C8.53153 1.49463 1.33008 8.47425 1.33008 17.0846Z" stroke="white" stroke-width="2" stroke-linecap="round" stroke-linejoin="round"/>
<path d="M19.0244 1.57227C19.0244 1.57227 23.85 7.7303 23.85 17.0843C23.85 26.4382 19.0244 32.5963 19.0244 32.5963M15.8073 32.5963C15.8073 32.5963 10.9816 26.4382 10.9816 17.0843C10.9816 7.7303 15.8073 1.57227 15.8073 1.57227M2.34375 22.5407H32.4879M2.34375 11.6278H32.4879" stroke="white" stroke-width="2" stroke-linecap="round" stroke-linejoin="round"/>
</svg>
